<mxfile host="Electron" agent="Mozilla/5.0 (Windows NT 10.0; Win64; x64) AppleWebKit/537.36 (KHTML, like Gecko) draw.io/28.0.6 Chrome/138.0.7204.100 Electron/37.2.3 Safari/537.36" version="28.0.6">
  <diagram name="Page-1" id="pyaao2WUALwtjrlrXu3V">
    <mxGraphModel dx="2276" dy="849" grid="1" gridSize="10" guides="1" tooltips="1" connect="1" arrows="1" fold="1" page="1" pageScale="1" pageWidth="850" pageHeight="1100" math="0" shadow="0">
      <root>
        <mxCell id="0" />
        <mxCell id="1" parent="0" />
        <mxCell id="JZzmLlW_1KoLrSPhXEY9-3" style="edgeStyle=orthogonalEdgeStyle;rounded=0;orthogonalLoop=1;jettySize=auto;html=1;" parent="1" source="JZzmLlW_1KoLrSPhXEY9-1" target="JZzmLlW_1KoLrSPhXEY9-2" edge="1">
          <mxGeometry relative="1" as="geometry" />
        </mxCell>
        <mxCell id="JZzmLlW_1KoLrSPhXEY9-9" value="" style="edgeStyle=orthogonalEdgeStyle;rounded=0;orthogonalLoop=1;jettySize=auto;html=1;" parent="1" source="JZzmLlW_1KoLrSPhXEY9-1" target="JZzmLlW_1KoLrSPhXEY9-8" edge="1">
          <mxGeometry relative="1" as="geometry">
            <Array as="points">
              <mxPoint x="300" y="190" />
              <mxPoint x="300" y="300" />
            </Array>
          </mxGeometry>
        </mxCell>
        <mxCell id="JZzmLlW_1KoLrSPhXEY9-1" value="Register&amp;nbsp;&lt;br&gt;new User" style="rounded=1;whiteSpace=wrap;html=1;" parent="1" vertex="1">
          <mxGeometry x="120" y="160" width="120" height="60" as="geometry" />
        </mxCell>
        <mxCell id="JZzmLlW_1KoLrSPhXEY9-5" value="" style="edgeStyle=orthogonalEdgeStyle;rounded=0;orthogonalLoop=1;jettySize=auto;html=1;" parent="1" source="JZzmLlW_1KoLrSPhXEY9-2" target="JZzmLlW_1KoLrSPhXEY9-4" edge="1">
          <mxGeometry relative="1" as="geometry" />
        </mxCell>
        <mxCell id="JZzmLlW_1KoLrSPhXEY9-2" value="Login" style="rounded=1;whiteSpace=wrap;html=1;" parent="1" vertex="1">
          <mxGeometry x="360" y="160" width="120" height="60" as="geometry" />
        </mxCell>
        <mxCell id="JZzmLlW_1KoLrSPhXEY9-7" value="" style="edgeStyle=orthogonalEdgeStyle;rounded=0;orthogonalLoop=1;jettySize=auto;html=1;" parent="1" source="JZzmLlW_1KoLrSPhXEY9-4" target="JZzmLlW_1KoLrSPhXEY9-6" edge="1">
          <mxGeometry relative="1" as="geometry" />
        </mxCell>
        <mxCell id="JZzmLlW_1KoLrSPhXEY9-4" value="Send Email" style="rounded=1;whiteSpace=wrap;html=1;" parent="1" vertex="1">
          <mxGeometry x="560" y="160" width="120" height="60" as="geometry" />
        </mxCell>
        <mxCell id="JZzmLlW_1KoLrSPhXEY9-14" value="" style="edgeStyle=orthogonalEdgeStyle;rounded=0;orthogonalLoop=1;jettySize=auto;html=1;" parent="1" source="JZzmLlW_1KoLrSPhXEY9-6" target="JZzmLlW_1KoLrSPhXEY9-13" edge="1">
          <mxGeometry relative="1" as="geometry">
            <Array as="points">
              <mxPoint x="890" y="300" />
              <mxPoint x="890" y="190" />
            </Array>
          </mxGeometry>
        </mxCell>
        <mxCell id="JZzmLlW_1KoLrSPhXEY9-21" value="" style="edgeStyle=orthogonalEdgeStyle;rounded=0;orthogonalLoop=1;jettySize=auto;html=1;" parent="1" source="JZzmLlW_1KoLrSPhXEY9-6" target="JZzmLlW_1KoLrSPhXEY9-20" edge="1">
          <mxGeometry relative="1" as="geometry" />
        </mxCell>
        <mxCell id="JZzmLlW_1KoLrSPhXEY9-51" style="edgeStyle=orthogonalEdgeStyle;rounded=0;orthogonalLoop=1;jettySize=auto;html=1;" parent="1" source="JZzmLlW_1KoLrSPhXEY9-6" target="JZzmLlW_1KoLrSPhXEY9-50" edge="1">
          <mxGeometry relative="1" as="geometry">
            <Array as="points">
              <mxPoint x="990" y="300" />
              <mxPoint x="990" y="400" />
            </Array>
          </mxGeometry>
        </mxCell>
        <mxCell id="JZzmLlW_1KoLrSPhXEY9-57" style="edgeStyle=orthogonalEdgeStyle;rounded=0;orthogonalLoop=1;jettySize=auto;html=1;" parent="1" source="JZzmLlW_1KoLrSPhXEY9-6" target="JZzmLlW_1KoLrSPhXEY9-56" edge="1">
          <mxGeometry relative="1" as="geometry">
            <Array as="points">
              <mxPoint x="990" y="300" />
              <mxPoint x="990" y="490" />
            </Array>
          </mxGeometry>
        </mxCell>
        <mxCell id="JZzmLlW_1KoLrSPhXEY9-6" value="Token" style="ellipse;whiteSpace=wrap;html=1;rounded=1;" parent="1" vertex="1">
          <mxGeometry x="810" y="260" width="80" height="80" as="geometry" />
        </mxCell>
        <mxCell id="JZzmLlW_1KoLrSPhXEY9-12" style="edgeStyle=orthogonalEdgeStyle;rounded=0;orthogonalLoop=1;jettySize=auto;html=1;" parent="1" source="JZzmLlW_1KoLrSPhXEY9-8" target="JZzmLlW_1KoLrSPhXEY9-6" edge="1">
          <mxGeometry relative="1" as="geometry" />
        </mxCell>
        <mxCell id="JZzmLlW_1KoLrSPhXEY9-8" value="Send Email" style="whiteSpace=wrap;html=1;rounded=1;" parent="1" vertex="1">
          <mxGeometry x="360" y="270" width="120" height="60" as="geometry" />
        </mxCell>
        <mxCell id="JZzmLlW_1KoLrSPhXEY9-19" value="" style="edgeStyle=orthogonalEdgeStyle;rounded=0;orthogonalLoop=1;jettySize=auto;html=1;" parent="1" source="JZzmLlW_1KoLrSPhXEY9-13" target="JZzmLlW_1KoLrSPhXEY9-18" edge="1">
          <mxGeometry relative="1" as="geometry">
            <Array as="points">
              <mxPoint x="1680" y="190" />
              <mxPoint x="1680" y="300" />
            </Array>
          </mxGeometry>
        </mxCell>
        <mxCell id="JZzmLlW_1KoLrSPhXEY9-13" value="Change Password" style="whiteSpace=wrap;html=1;rounded=1;" parent="1" vertex="1">
          <mxGeometry x="1090" y="160" width="120" height="60" as="geometry" />
        </mxCell>
        <mxCell id="JZzmLlW_1KoLrSPhXEY9-17" style="edgeStyle=orthogonalEdgeStyle;rounded=0;orthogonalLoop=1;jettySize=auto;html=1;" parent="1" source="JZzmLlW_1KoLrSPhXEY9-15" target="JZzmLlW_1KoLrSPhXEY9-13" edge="1">
          <mxGeometry relative="1" as="geometry" />
        </mxCell>
        <mxCell id="JZzmLlW_1KoLrSPhXEY9-22" style="edgeStyle=orthogonalEdgeStyle;rounded=0;orthogonalLoop=1;jettySize=auto;html=1;" parent="1" source="JZzmLlW_1KoLrSPhXEY9-15" target="JZzmLlW_1KoLrSPhXEY9-20" edge="1">
          <mxGeometry relative="1" as="geometry">
            <Array as="points">
              <mxPoint x="1250" y="250" />
              <mxPoint x="1150" y="250" />
            </Array>
          </mxGeometry>
        </mxCell>
        <mxCell id="JZzmLlW_1KoLrSPhXEY9-52" style="edgeStyle=orthogonalEdgeStyle;rounded=0;orthogonalLoop=1;jettySize=auto;html=1;" parent="1" source="JZzmLlW_1KoLrSPhXEY9-15" target="JZzmLlW_1KoLrSPhXEY9-50" edge="1">
          <mxGeometry relative="1" as="geometry">
            <Array as="points">
              <mxPoint x="1250" y="350" />
              <mxPoint x="1150" y="350" />
            </Array>
          </mxGeometry>
        </mxCell>
        <mxCell id="JZzmLlW_1KoLrSPhXEY9-15" value="Old&amp;nbsp;&lt;br&gt;Password" style="rhombus;whiteSpace=wrap;html=1;rounded=1;" parent="1" vertex="1">
          <mxGeometry x="1210" y="40" width="80" height="80" as="geometry" />
        </mxCell>
        <mxCell id="JZzmLlW_1KoLrSPhXEY9-18" value="Token" style="ellipse;whiteSpace=wrap;html=1;rounded=1;" parent="1" vertex="1">
          <mxGeometry x="1640" y="260" width="80" height="80" as="geometry" />
        </mxCell>
        <mxCell id="JZzmLlW_1KoLrSPhXEY9-25" value="" style="edgeStyle=orthogonalEdgeStyle;rounded=0;orthogonalLoop=1;jettySize=auto;html=1;" parent="1" source="JZzmLlW_1KoLrSPhXEY9-20" target="JZzmLlW_1KoLrSPhXEY9-24" edge="1">
          <mxGeometry relative="1" as="geometry" />
        </mxCell>
        <mxCell id="JZzmLlW_1KoLrSPhXEY9-20" value="Change Email" style="whiteSpace=wrap;html=1;rounded=1;" parent="1" vertex="1">
          <mxGeometry x="1090" y="270" width="120" height="60" as="geometry" />
        </mxCell>
        <mxCell id="JZzmLlW_1KoLrSPhXEY9-26" style="edgeStyle=orthogonalEdgeStyle;rounded=0;orthogonalLoop=1;jettySize=auto;html=1;" parent="1" source="JZzmLlW_1KoLrSPhXEY9-24" target="JZzmLlW_1KoLrSPhXEY9-18" edge="1">
          <mxGeometry relative="1" as="geometry" />
        </mxCell>
        <mxCell id="JZzmLlW_1KoLrSPhXEY9-24" value="Send Email" style="whiteSpace=wrap;html=1;rounded=1;" parent="1" vertex="1">
          <mxGeometry x="1380" y="270" width="120" height="60" as="geometry" />
        </mxCell>
        <mxCell id="JZzmLlW_1KoLrSPhXEY9-29" value="" style="edgeStyle=orthogonalEdgeStyle;rounded=0;orthogonalLoop=1;jettySize=auto;html=1;" parent="1" source="JZzmLlW_1KoLrSPhXEY9-27" target="JZzmLlW_1KoLrSPhXEY9-28" edge="1">
          <mxGeometry relative="1" as="geometry">
            <Array as="points">
              <mxPoint x="410" y="490" />
              <mxPoint x="410" y="490" />
            </Array>
          </mxGeometry>
        </mxCell>
        <mxCell id="JZzmLlW_1KoLrSPhXEY9-34" value="" style="edgeStyle=orthogonalEdgeStyle;rounded=0;orthogonalLoop=1;jettySize=auto;html=1;entryX=-0.006;entryY=0.422;entryDx=0;entryDy=0;entryPerimeter=0;" parent="1" source="JZzmLlW_1KoLrSPhXEY9-27" target="JZzmLlW_1KoLrSPhXEY9-33" edge="1">
          <mxGeometry relative="1" as="geometry">
            <Array as="points">
              <mxPoint x="-190" y="500" />
              <mxPoint x="-190" y="615" />
              <mxPoint x="-121" y="615" />
            </Array>
          </mxGeometry>
        </mxCell>
        <mxCell id="JZzmLlW_1KoLrSPhXEY9-27" value="Login" style="rounded=1;whiteSpace=wrap;html=1;" parent="1" vertex="1">
          <mxGeometry x="-460" y="470" width="120" height="60" as="geometry" />
        </mxCell>
        <mxCell id="JZzmLlW_1KoLrSPhXEY9-60" style="edgeStyle=orthogonalEdgeStyle;rounded=0;orthogonalLoop=1;jettySize=auto;html=1;entryX=0;entryY=0.5;entryDx=0;entryDy=0;" parent="1" source="JZzmLlW_1KoLrSPhXEY9-28" target="JZzmLlW_1KoLrSPhXEY9-59" edge="1">
          <mxGeometry relative="1" as="geometry" />
        </mxCell>
        <mxCell id="JZzmLlW_1KoLrSPhXEY9-28" value="&lt;div&gt;login detail&lt;/div&gt;" style="rounded=1;whiteSpace=wrap;html=1;" parent="1" vertex="1">
          <mxGeometry x="410" y="470" width="120" height="60" as="geometry" />
        </mxCell>
        <mxCell id="JZzmLlW_1KoLrSPhXEY9-33" value="Forget Password" style="whiteSpace=wrap;html=1;rounded=1;" parent="1" vertex="1">
          <mxGeometry x="-120" y="590" width="120" height="60" as="geometry" />
        </mxCell>
        <mxCell id="JZzmLlW_1KoLrSPhXEY9-44" style="edgeStyle=orthogonalEdgeStyle;rounded=0;orthogonalLoop=1;jettySize=auto;html=1;" parent="1" source="JZzmLlW_1KoLrSPhXEY9-33" target="JZzmLlW_1KoLrSPhXEY9-42" edge="1">
          <mxGeometry relative="1" as="geometry">
            <mxPoint x="650" y="670" as="sourcePoint" />
            <Array as="points">
              <mxPoint x="40" y="620" />
              <mxPoint x="40" y="580" />
            </Array>
          </mxGeometry>
        </mxCell>
        <mxCell id="JZzmLlW_1KoLrSPhXEY9-45" style="edgeStyle=orthogonalEdgeStyle;rounded=0;orthogonalLoop=1;jettySize=auto;html=1;exitX=0.999;exitY=0.335;exitDx=0;exitDy=0;exitPerimeter=0;" parent="1" source="JZzmLlW_1KoLrSPhXEY9-33" target="JZzmLlW_1KoLrSPhXEY9-43" edge="1">
          <mxGeometry relative="1" as="geometry">
            <mxPoint x="650" y="670" as="sourcePoint" />
            <Array as="points">
              <mxPoint y="620" />
              <mxPoint x="40" y="620" />
              <mxPoint x="40" y="670" />
            </Array>
          </mxGeometry>
        </mxCell>
        <mxCell id="JZzmLlW_1KoLrSPhXEY9-47" style="edgeStyle=orthogonalEdgeStyle;rounded=0;orthogonalLoop=1;jettySize=auto;html=1;" parent="1" source="JZzmLlW_1KoLrSPhXEY9-42" target="JZzmLlW_1KoLrSPhXEY9-46" edge="1">
          <mxGeometry relative="1" as="geometry" />
        </mxCell>
        <mxCell id="JZzmLlW_1KoLrSPhXEY9-42" value="Send email" style="rounded=1;whiteSpace=wrap;html=1;" parent="1" vertex="1">
          <mxGeometry x="100" y="550" width="120" height="60" as="geometry" />
        </mxCell>
        <mxCell id="JZzmLlW_1KoLrSPhXEY9-48" style="edgeStyle=orthogonalEdgeStyle;rounded=0;orthogonalLoop=1;jettySize=auto;html=1;" parent="1" source="JZzmLlW_1KoLrSPhXEY9-43" target="JZzmLlW_1KoLrSPhXEY9-46" edge="1">
          <mxGeometry relative="1" as="geometry" />
        </mxCell>
        <mxCell id="JZzmLlW_1KoLrSPhXEY9-43" value="Send backup&lt;br&gt;email" style="rounded=1;whiteSpace=wrap;html=1;" parent="1" vertex="1">
          <mxGeometry x="100" y="640" width="120" height="60" as="geometry" />
        </mxCell>
        <mxCell id="JZzmLlW_1KoLrSPhXEY9-46" value="reset&lt;br&gt;password" style="ellipse;whiteSpace=wrap;html=1;aspect=fixed;" parent="1" vertex="1">
          <mxGeometry x="310" y="580" width="80" height="80" as="geometry" />
        </mxCell>
        <mxCell id="JZzmLlW_1KoLrSPhXEY9-49" style="edgeStyle=orthogonalEdgeStyle;rounded=0;orthogonalLoop=1;jettySize=auto;html=1;" parent="1" source="JZzmLlW_1KoLrSPhXEY9-46" target="JZzmLlW_1KoLrSPhXEY9-28" edge="1">
          <mxGeometry relative="1" as="geometry">
            <Array as="points">
              <mxPoint x="470" y="620" />
            </Array>
          </mxGeometry>
        </mxCell>
        <mxCell id="JZzmLlW_1KoLrSPhXEY9-54" style="edgeStyle=orthogonalEdgeStyle;rounded=0;orthogonalLoop=1;jettySize=auto;html=1;entryX=0;entryY=0.5;entryDx=0;entryDy=0;" parent="1" source="JZzmLlW_1KoLrSPhXEY9-50" target="JZzmLlW_1KoLrSPhXEY9-53" edge="1">
          <mxGeometry relative="1" as="geometry" />
        </mxCell>
        <mxCell id="JZzmLlW_1KoLrSPhXEY9-50" value="Add backup&lt;br&gt;email" style="rounded=1;whiteSpace=wrap;html=1;" parent="1" vertex="1">
          <mxGeometry x="1090" y="370" width="120" height="60" as="geometry" />
        </mxCell>
        <mxCell id="JZzmLlW_1KoLrSPhXEY9-55" style="edgeStyle=orthogonalEdgeStyle;rounded=0;orthogonalLoop=1;jettySize=auto;html=1;" parent="1" source="JZzmLlW_1KoLrSPhXEY9-53" target="JZzmLlW_1KoLrSPhXEY9-18" edge="1">
          <mxGeometry relative="1" as="geometry">
            <Array as="points">
              <mxPoint x="1680" y="400" />
              <mxPoint x="1680" y="300" />
            </Array>
          </mxGeometry>
        </mxCell>
        <mxCell id="JZzmLlW_1KoLrSPhXEY9-53" value="Send backup&lt;br&gt;email" style="rounded=1;whiteSpace=wrap;html=1;" parent="1" vertex="1">
          <mxGeometry x="1380" y="370" width="120" height="60" as="geometry" />
        </mxCell>
        <mxCell id="JZzmLlW_1KoLrSPhXEY9-58" style="edgeStyle=orthogonalEdgeStyle;rounded=0;orthogonalLoop=1;jettySize=auto;html=1;" parent="1" source="JZzmLlW_1KoLrSPhXEY9-56" target="JZzmLlW_1KoLrSPhXEY9-18" edge="1">
          <mxGeometry relative="1" as="geometry" />
        </mxCell>
        <mxCell id="JZzmLlW_1KoLrSPhXEY9-56" value="Remove backup&lt;br&gt;email" style="rounded=1;whiteSpace=wrap;html=1;" parent="1" vertex="1">
          <mxGeometry x="1090" y="460" width="120" height="60" as="geometry" />
        </mxCell>
        <mxCell id="JZzmLlW_1KoLrSPhXEY9-62" style="edgeStyle=orthogonalEdgeStyle;rounded=0;orthogonalLoop=1;jettySize=auto;html=1;" parent="1" target="JZzmLlW_1KoLrSPhXEY9-6" edge="1">
          <mxGeometry relative="1" as="geometry">
            <mxPoint x="750" y="500" as="sourcePoint" />
          </mxGeometry>
        </mxCell>
        <mxCell id="JZzmLlW_1KoLrSPhXEY9-67" value="" style="edgeStyle=orthogonalEdgeStyle;rounded=0;orthogonalLoop=1;jettySize=auto;html=1;" parent="1" source="JZzmLlW_1KoLrSPhXEY9-59" target="JZzmLlW_1KoLrSPhXEY9-68" edge="1">
          <mxGeometry relative="1" as="geometry">
            <mxPoint x="710" y="500" as="targetPoint" />
          </mxGeometry>
        </mxCell>
        <mxCell id="JZzmLlW_1KoLrSPhXEY9-70" value="" style="edgeStyle=orthogonalEdgeStyle;rounded=0;orthogonalLoop=1;jettySize=auto;html=1;" parent="1" source="JZzmLlW_1KoLrSPhXEY9-59" target="JZzmLlW_1KoLrSPhXEY9-69" edge="1">
          <mxGeometry relative="1" as="geometry" />
        </mxCell>
        <mxCell id="JZzmLlW_1KoLrSPhXEY9-59" value="Session?" style="rhombus;whiteSpace=wrap;html=1;" parent="1" vertex="1">
          <mxGeometry x="590" y="460" width="80" height="80" as="geometry" />
        </mxCell>
        <mxCell id="JZzmLlW_1KoLrSPhXEY9-68" value="Yes" style="whiteSpace=wrap;html=1;" parent="1" vertex="1">
          <mxGeometry x="720" y="485" width="50" height="30" as="geometry" />
        </mxCell>
        <mxCell id="JZzmLlW_1KoLrSPhXEY9-75" style="edgeStyle=orthogonalEdgeStyle;rounded=0;orthogonalLoop=1;jettySize=auto;html=1;" parent="1" source="JZzmLlW_1KoLrSPhXEY9-69" target="JZzmLlW_1KoLrSPhXEY9-73" edge="1">
          <mxGeometry relative="1" as="geometry">
            <Array as="points">
              <mxPoint x="630" y="680" />
            </Array>
          </mxGeometry>
        </mxCell>
        <mxCell id="JZzmLlW_1KoLrSPhXEY9-76" style="edgeStyle=orthogonalEdgeStyle;rounded=0;orthogonalLoop=1;jettySize=auto;html=1;" parent="1" source="JZzmLlW_1KoLrSPhXEY9-69" target="JZzmLlW_1KoLrSPhXEY9-74" edge="1">
          <mxGeometry relative="1" as="geometry">
            <Array as="points">
              <mxPoint x="630" y="760" />
            </Array>
          </mxGeometry>
        </mxCell>
        <mxCell id="JZzmLlW_1KoLrSPhXEY9-69" value="No" style="whiteSpace=wrap;html=1;" parent="1" vertex="1">
          <mxGeometry x="600" y="590" width="60" height="30" as="geometry" />
        </mxCell>
        <mxCell id="JZzmLlW_1KoLrSPhXEY9-77" style="edgeStyle=orthogonalEdgeStyle;rounded=0;orthogonalLoop=1;jettySize=auto;html=1;" parent="1" source="JZzmLlW_1KoLrSPhXEY9-73" target="JZzmLlW_1KoLrSPhXEY9-6" edge="1">
          <mxGeometry relative="1" as="geometry">
            <Array as="points">
              <mxPoint x="850" y="680" />
            </Array>
          </mxGeometry>
        </mxCell>
        <mxCell id="JZzmLlW_1KoLrSPhXEY9-73" value="Send email" style="rounded=1;whiteSpace=wrap;html=1;" parent="1" vertex="1">
          <mxGeometry x="680" y="650" width="120" height="60" as="geometry" />
        </mxCell>
        <mxCell id="JZzmLlW_1KoLrSPhXEY9-74" value="Send backup&lt;br&gt;email" style="rounded=1;whiteSpace=wrap;html=1;" parent="1" vertex="1">
          <mxGeometry x="680" y="730" width="120" height="60" as="geometry" />
        </mxCell>
        <mxCell id="JZzmLlW_1KoLrSPhXEY9-78" style="edgeStyle=orthogonalEdgeStyle;rounded=0;orthogonalLoop=1;jettySize=auto;html=1;" parent="1" source="JZzmLlW_1KoLrSPhXEY9-74" target="JZzmLlW_1KoLrSPhXEY9-6" edge="1">
          <mxGeometry relative="1" as="geometry">
            <Array as="points">
              <mxPoint x="850" y="760" />
            </Array>
          </mxGeometry>
        </mxCell>
      </root>
    </mxGraphModel>
  </diagram>
</mxfile>
